<?xml version="1.0" encoding="utf-8" standalone="no"?>
<!DOCTYPE svg PUBLIC "-//W3C//DTD SVG 1.1//EN"
  "http://www.w3.org/Graphics/SVG/1.1/DTD/svg11.dtd">
<svg xmlns:xlink="http://www.w3.org/1999/xlink" width="568.8pt" height="568.8pt" viewBox="0 0 568.8 568.8" xmlns="http://www.w3.org/2000/svg" version="1.1">
 <metadata>
  <rdf:RDF xmlns:dc="http://purl.org/dc/elements/1.1/" xmlns:cc="http://creativecommons.org/ns#" xmlns:rdf="http://www.w3.org/1999/02/22-rdf-syntax-ns#">
   <cc:Work>
    <dc:type rdf:resource="http://purl.org/dc/dcmitype/StillImage"/>
    <dc:date>2023-08-17T17:34:39.893541</dc:date>
    <dc:format>image/svg+xml</dc:format>
    <dc:creator>
     <cc:Agent>
      <dc:title>Matplotlib v3.7.1, https://matplotlib.org/</dc:title>
     </cc:Agent>
    </dc:creator>
   </cc:Work>
  </rdf:RDF>
 </metadata>
 <defs>
  <style type="text/css">*{stroke-linejoin: round; stroke-linecap: butt}</style>
 </defs>
 <g id="figure_1">
  <g id="patch_1">
   <path d="M 0 568.8 
L 568.8 568.8 
L 568.8 0 
L 0 0 
z
" style="fill: #ffffff"/>
  </g>
  <g id="axes_1">
   <g id="patch_2">
    <path d="M 561.6 284.4 
C 561.6 247.99843 554.429684 211.950818 540.499406 178.320153 
C 526.569128 144.689487 506.149797 114.129798 480.41 88.39 
C 454.670202 62.650203 424.110513 42.230872 390.479847 28.300594 
C 356.849182 14.370316 320.80157 7.2 284.4 7.2 
C 247.99843 7.2 211.950818 14.370316 178.320153 28.300594 
C 144.689487 42.230872 114.129798 62.650203 88.39 88.39 
C 62.650203 114.129798 42.230872 144.689487 28.300594 178.320153 
C 14.370316 211.950818 7.2 247.99843 7.2 284.4 
C 7.2 320.80157 14.370316 356.849182 28.300594 390.479847 
C 42.230872 424.110513 62.650203 454.670202 88.39 480.41 
C 114.129798 506.149797 144.689487 526.569128 178.320153 540.499406 
C 211.950818 554.429684 247.99843 561.6 284.4 561.6 
C 320.80157 561.6 356.849182 554.429684 390.479847 540.499406 
C 424.110513 526.569128 454.670202 506.149797 480.41 480.41 
C 506.149797 454.670202 526.569128 424.110513 540.499406 390.479847 
C 554.429684 356.849182 561.6 320.80157 561.6 284.4 
M 284.4 284.4 
C 284.4 284.4 284.4 284.4 284.4 284.4 
C 284.4 284.4 284.4 284.4 284.4 284.4 
C 284.4 284.4 284.4 284.4 284.4 284.4 
C 284.4 284.4 284.4 284.4 284.4 284.4 
C 284.4 284.4 284.4 284.4 284.4 284.4 
C 284.4 284.4 284.4 284.4 284.4 284.4 
C 284.4 284.4 284.4 284.4 284.4 284.4 
C 284.4 284.4 284.4 284.4 284.4 284.4 
C 284.4 284.4 284.4 284.4 284.4 284.4 
C 284.4 284.4 284.4 284.4 284.4 284.4 
C 284.4 284.4 284.4 284.4 284.4 284.4 
C 284.4 284.4 284.4 284.4 284.4 284.4 
C 284.4 284.4 284.4 284.4 284.4 284.4 
C 284.4 284.4 284.4 284.4 284.4 284.4 
C 284.4 284.4 284.4 284.4 284.4 284.4 
C 284.4 284.4 284.4 284.4 284.4 284.4 
z
" style="fill: #ffffff"/>
   </g>
   <g id="matplotlib.axis_1">
    <g id="xtick_1">
     <g id="line2d_1">
      <path d="M 284.4 284.4 
L 178.320153 28.300594 
" clip-path="url(#pd60c1bd884)" style="fill: none; stroke: #000000; stroke-width: 0.5; stroke-linecap: round"/>
     </g>
    </g>
    <g id="xtick_2">
     <g id="line2d_2">
      <path d="M 284.4 284.4 
L 28.300594 178.320153 
" clip-path="url(#pd60c1bd884)" style="fill: none; stroke: #000000; stroke-width: 0.5; stroke-linecap: round"/>
     </g>
    </g>
    <g id="xtick_3">
     <g id="line2d_3">
      <path d="M 284.4 284.4 
L 28.300594 390.479847 
" clip-path="url(#pd60c1bd884)" style="fill: none; stroke: #000000; stroke-width: 0.5; stroke-linecap: round"/>
     </g>
    </g>
    <g id="xtick_4">
     <g id="line2d_4">
      <path d="M 284.4 284.4 
L 178.320153 540.499406 
" clip-path="url(#pd60c1bd884)" style="fill: none; stroke: #000000; stroke-width: 0.5; stroke-linecap: round"/>
     </g>
    </g>
    <g id="xtick_5">
     <g id="line2d_5">
      <path d="M 284.4 284.4 
L 390.479847 540.499406 
" clip-path="url(#pd60c1bd884)" style="fill: none; stroke: #000000; stroke-width: 0.5; stroke-linecap: round"/>
     </g>
    </g>
    <g id="xtick_6">
     <g id="line2d_6">
      <path d="M 284.4 284.4 
L 540.499406 390.479847 
" clip-path="url(#pd60c1bd884)" style="fill: none; stroke: #000000; stroke-width: 0.5; stroke-linecap: round"/>
     </g>
    </g>
    <g id="xtick_7">
     <g id="line2d_7">
      <path d="M 284.4 284.4 
L 540.499406 178.320153 
" clip-path="url(#pd60c1bd884)" style="fill: none; stroke: #000000; stroke-width: 0.5; stroke-linecap: round"/>
     </g>
    </g>
    <g id="xtick_8">
     <g id="line2d_8">
      <path d="M 284.4 284.4 
L 390.479847 28.300594 
" clip-path="url(#pd60c1bd884)" style="fill: none; stroke: #000000; stroke-width: 0.5; stroke-linecap: round"/>
     </g>
    </g>
   </g>
   <g id="matplotlib.axis_2">
    <g id="ytick_1">
     <g id="line2d_9">
      <path d="M 263.184031 233.180119 
C 256.457897 235.966174 250.34596 240.050041 245.198 245.198 
C 240.050041 250.34596 235.966174 256.457897 233.180119 263.184031 
C 230.394063 269.910164 228.96 277.119686 228.96 284.4 
C 228.96 291.680314 230.394063 298.889836 233.180119 305.615969 
C 235.966174 312.342103 240.050041 318.45404 245.198 323.602 
C 250.34596 328.749959 256.457897 332.833826 263.184031 335.619881 
C 269.910164 338.405937 277.119686 339.84 284.4 339.84 
C 291.680314 339.84 298.889836 338.405937 305.615969 335.619881 
C 312.342103 332.833826 318.45404 328.749959 323.602 323.602 
C 328.749959 318.45404 332.833826 312.342103 335.619881 305.615969 
C 338.405937 298.889836 339.84 291.680314 339.84 284.4 
C 339.84 277.119686 338.405937 269.910164 335.619881 263.184031 
C 332.833826 256.457897 328.749959 250.34596 323.602 245.198 
C 318.45404 240.050041 312.342103 235.966174 305.615969 233.180119 
C 298.889836 230.394063 291.680314 228.96 284.4 228.96 
C 277.119686 228.96 269.910164 230.394063 263.184031 233.180119 
" clip-path="url(#pd60c1bd884)" style="fill: none; stroke: #000000; stroke-width: 0.5; stroke-linecap: round"/>
     </g>
    </g>
    <g id="ytick_2">
     <g id="line2d_10">
      <path d="M 241.968061 181.960237 
C 228.515795 187.532349 216.291919 195.700081 205.996 205.996 
C 195.700081 216.291919 187.532349 228.515795 181.960237 241.968061 
C 176.388126 255.420327 173.52 269.839372 173.52 284.4 
C 173.52 298.960628 176.388126 313.379673 181.960237 326.831939 
C 187.532349 340.284205 195.700081 352.508081 205.996 362.804 
C 216.291919 373.099919 228.515795 381.267651 241.968061 386.839763 
C 255.420327 392.411874 269.839372 395.28 284.4 395.28 
C 298.960628 395.28 313.379673 392.411874 326.831939 386.839763 
C 340.284205 381.267651 352.508081 373.099919 362.804 362.804 
C 373.099919 352.508081 381.267651 340.284205 386.839763 326.831939 
C 392.411874 313.379673 395.28 298.960628 395.28 284.4 
C 395.28 269.839372 392.411874 255.420327 386.839763 241.968061 
C 381.267651 228.515795 373.099919 216.291919 362.804 205.996 
C 352.508081 195.700081 340.284205 187.532349 326.831939 181.960237 
C 313.379673 176.388126 298.960628 173.52 284.4 173.52 
C 269.839372 173.52 255.420327 176.388126 241.968061 181.960237 
" clip-path="url(#pd60c1bd884)" style="fill: none; stroke: #000000; stroke-width: 0.5; stroke-linecap: round"/>
     </g>
    </g>
    <g id="ytick_3">
     <g id="line2d_11">
      <path d="M 220.752092 130.740356 
C 200.573692 139.098523 182.237879 151.350122 166.794 166.794 
C 151.350122 182.237879 139.098523 200.573692 130.740356 220.752092 
C 122.382189 240.930491 118.08 262.559058 118.08 284.4 
C 118.08 306.240942 122.382189 327.869509 130.740356 348.047908 
C 139.098523 368.226308 151.350122 386.562121 166.794 402.006 
C 182.237879 417.449878 200.573692 429.701477 220.752092 438.059644 
C 240.930491 446.417811 262.559058 450.72 284.4 450.72 
C 306.240942 450.72 327.869509 446.417811 348.047908 438.059644 
C 368.226308 429.701477 386.562121 417.449878 402.006 402.006 
C 417.449878 386.562121 429.701477 368.226308 438.059644 348.047908 
C 446.417811 327.869509 450.72 306.240942 450.72 284.4 
C 450.72 262.559058 446.417811 240.930491 438.059644 220.752092 
C 429.701477 200.573692 417.449878 182.237879 402.006 166.794 
C 386.562121 151.350122 368.226308 139.098523 348.047908 130.740356 
C 327.869509 122.382189 306.240942 118.08 284.4 118.08 
C 262.559058 118.08 240.930491 122.382189 220.752092 130.740356 
" clip-path="url(#pd60c1bd884)" style="fill: none; stroke: #000000; stroke-width: 0.5; stroke-linecap: round"/>
     </g>
    </g>
    <g id="ytick_4">
     <g id="line2d_12">
      <path d="M 199.536122 79.520475 
C 172.631589 90.664697 148.183838 107.000162 127.592 127.592 
C 107.000162 148.183838 90.664697 172.631589 79.520475 199.536122 
C 68.376253 226.440655 62.64 255.278744 62.64 284.4 
C 62.64 313.521256 68.376253 342.359345 79.520475 369.263878 
C 90.664697 396.168411 107.000162 420.616162 127.592 441.208 
C 148.183838 461.799838 172.631589 478.135303 199.536122 489.279525 
C 226.440655 500.423747 255.278744 506.16 284.4 506.16 
C 313.521256 506.16 342.359345 500.423747 369.263878 489.279525 
C 396.168411 478.135303 420.616162 461.799838 441.208 441.208 
C 461.799838 420.616162 478.135303 396.168411 489.279525 369.263878 
C 500.423747 342.359345 506.16 313.521256 506.16 284.4 
C 506.16 255.278744 500.423747 226.440655 489.279525 199.536122 
C 478.135303 172.631589 461.799838 148.183838 441.208 127.592 
C 420.616162 107.000162 396.168411 90.664697 369.263878 79.520475 
C 342.359345 68.376253 313.521256 62.64 284.4 62.64 
C 255.278744 62.64 226.440655 68.376253 199.536122 79.520475 
" clip-path="url(#pd60c1bd884)" style="fill: none; stroke: #000000; stroke-width: 0.5; stroke-linecap: round"/>
     </g>
    </g>
    <g id="ytick_5">
     <g id="line2d_13">
      <path d="M 178.320153 28.300594 
C 144.689487 42.230872 114.129798 62.650203 88.39 88.39 
C 62.650203 114.129798 42.230872 144.689487 28.300594 178.320153 
C 14.370316 211.950818 7.2 247.99843 7.2 284.4 
C 7.2 320.80157 14.370316 356.849182 28.300594 390.479847 
C 42.230872 424.110513 62.650203 454.670202 88.39 480.41 
C 114.129798 506.149797 144.689487 526.569128 178.320153 540.499406 
C 211.950818 554.429684 247.99843 561.6 284.4 561.6 
C 320.80157 561.6 356.849182 554.429684 390.479847 540.499406 
C 424.110513 526.569128 454.670202 506.149797 480.41 480.41 
C 506.149797 454.670202 526.569128 424.110513 540.499406 390.479847 
C 554.429684 356.849182 561.6 320.80157 561.6 284.4 
C 561.6 247.99843 554.429684 211.950818 540.499406 178.320153 
C 526.569128 144.689487 506.149797 114.129798 480.41 88.39 
C 454.670202 62.650203 424.110513 42.230872 390.479847 28.300594 
C 356.849182 14.370316 320.80157 7.2 284.4 7.2 
C 247.99843 7.2 211.950818 14.370316 178.320153 28.300594 
" clip-path="url(#pd60c1bd884)" style="fill: none; stroke: #000000; stroke-width: 0.5; stroke-linecap: round"/>
     </g>
    </g>
   </g>
   <g id="line2d_14">
    <path d="M 206.855632 97.191334 
L 137.65504 223.616247 
L 115.886591 354.20054 
L 193.551609 503.727419 
L 364.814305 478.537307 
L 382.486073 325.028582 
L 360.205424 253.000365 
L 369.263878 79.520475 
L 206.855632 97.191334 
" clip-path="url(#pd60c1bd884)" style="fill: none; stroke: #5402a3; stroke-width: 1.5; stroke-linecap: round"/>
   </g>
   <g id="line2d_15">
    <path d="M 202.930677 87.715656 
L 137.91114 223.722327 
L 128.691561 348.896547 
L 191.251771 509.279719 
L 368.557672 487.574593 
L 347.656553 310.601722 
L 385.303166 242.60454 
L 372.552353 71.581393 
L 202.930677 87.715656 
" clip-path="url(#pd60c1bd884)" style="fill: none; stroke: #db5b68; stroke-width: 1.5; stroke-linecap: round"/>
   </g>
   <g id="patch_3">
    <path d="M 178.320153 28.300594 
C 144.689487 42.230872 114.129798 62.650203 88.39 88.39 
C 62.650203 114.129798 42.230872 144.689487 28.300594 178.320153 
C 14.370316 211.950818 7.2 247.99843 7.2 284.4 
C 7.2 320.80157 14.370316 356.849182 28.300594 390.479847 
C 42.230872 424.110513 62.650203 454.670202 88.39 480.41 
C 114.129798 506.149797 144.689487 526.569128 178.320153 540.499406 
C 211.950818 554.429684 247.99843 561.6 284.4 561.6 
C 320.80157 561.6 356.849182 554.429684 390.479847 540.499406 
C 424.110513 526.569128 454.670202 506.149797 480.41 480.41 
C 506.149797 454.670202 526.569128 424.110513 540.499406 390.479847 
C 554.429684 356.849182 561.6 320.80157 561.6 284.4 
C 561.6 247.99843 554.429684 211.950818 540.499406 178.320153 
C 526.569128 144.689487 506.149797 114.129798 480.41 88.39 
C 454.670202 62.650203 424.110513 42.230872 390.479847 28.300594 
C 356.849182 14.370316 320.80157 7.2 284.4 7.2 
C 247.99843 7.2 211.950818 14.370316 178.320153 28.300594 
" style="fill: none; stroke: #000000; stroke-width: 0.5; stroke-linejoin: miter; stroke-linecap: square"/>
   </g>
   <g id="patch_4">
    <path d="M 206.855632 97.191334 
L 137.65504 223.616247 
L 115.886591 354.20054 
L 193.551609 503.727419 
L 364.814305 478.537307 
L 382.486073 325.028582 
L 360.205424 253.000365 
L 369.263878 79.520475 
L 206.855632 97.191334 
z
" clip-path="url(#pd60c1bd884)" style="fill: #5402a3; opacity: 0.3; stroke: #5402a3; stroke-linejoin: miter"/>
   </g>
   <g id="patch_5">
    <path d="M 202.930677 87.715656 
L 137.91114 223.722327 
L 128.691561 348.896547 
L 191.251771 509.279719 
L 368.557672 487.574593 
L 347.656553 310.601722 
L 385.303166 242.60454 
L 372.552353 71.581393 
L 202.930677 87.715656 
z
" clip-path="url(#pd60c1bd884)" style="fill: #db5b68; opacity: 0.3; stroke: #db5b68; stroke-linejoin: miter"/>
   </g>
  </g>
 </g>
 <defs>
  <clipPath id="pd60c1bd884">
   <path d="M 561.6 284.4 
C 561.6 247.99843 554.429684 211.950818 540.499406 178.320153 
C 526.569128 144.689487 506.149797 114.129798 480.41 88.39 
C 454.670202 62.650203 424.110513 42.230872 390.479847 28.300594 
C 356.849182 14.370316 320.80157 7.2 284.4 7.2 
C 247.99843 7.2 211.950818 14.370316 178.320153 28.300594 
C 144.689487 42.230872 114.129798 62.650203 88.39 88.39 
C 62.650203 114.129798 42.230872 144.689487 28.300594 178.320153 
C 14.370316 211.950818 7.2 247.99843 7.2 284.4 
C 7.2 320.80157 14.370316 356.849182 28.300594 390.479847 
C 42.230872 424.110513 62.650203 454.670202 88.39 480.41 
C 114.129798 506.149797 144.689487 526.569128 178.320153 540.499406 
C 211.950818 554.429684 247.99843 561.6 284.4 561.6 
C 320.80157 561.6 356.849182 554.429684 390.479847 540.499406 
C 424.110513 526.569128 454.670202 506.149797 480.41 480.41 
C 506.149797 454.670202 526.569128 424.110513 540.499406 390.479847 
C 554.429684 356.849182 561.6 320.80157 561.6 284.4 
M 284.4 284.4 
C 284.4 284.4 284.4 284.4 284.4 284.4 
C 284.4 284.4 284.4 284.4 284.4 284.4 
C 284.4 284.4 284.4 284.4 284.4 284.4 
C 284.4 284.4 284.4 284.4 284.4 284.4 
C 284.4 284.4 284.4 284.4 284.4 284.4 
C 284.4 284.4 284.4 284.4 284.4 284.4 
C 284.4 284.4 284.4 284.4 284.4 284.4 
C 284.4 284.4 284.4 284.4 284.4 284.4 
C 284.4 284.4 284.4 284.4 284.4 284.4 
C 284.4 284.4 284.4 284.4 284.4 284.4 
C 284.4 284.4 284.4 284.4 284.4 284.4 
C 284.4 284.4 284.4 284.4 284.4 284.4 
C 284.4 284.4 284.4 284.4 284.4 284.4 
C 284.4 284.4 284.4 284.4 284.4 284.4 
C 284.4 284.4 284.4 284.4 284.4 284.4 
C 284.4 284.4 284.4 284.4 284.4 284.4 
z
"/>
  </clipPath>
 </defs>
</svg>
